HIERARCHY
ROOT Hips
{
 OFFSET 0.000000 0.000000 0.000000
 CHANNELS 6 Xposition Yposition Zposition Yrotation Xrotation Zrotation
 JOINT Chest
 {
  OFFSET 0.000000 9.585900 0.002600
  CHANNELS 3 Yrotation Xrotation Zrotation
  JOINT Chest2
  {
   OFFSET 0.000000 9.601200 -0.005300
   CHANNELS 3 Yrotation Xrotation Zrotation
   JOINT Chest3
   {
    OFFSET 0.000000 9.561800 0.000000
    CHANNELS 3 Yrotation Xrotation Zrotation
    JOINT Chest4
    {
     OFFSET 0.000000 9.552100 0.000000
     CHANNELS 3 Yrotation Xrotation Zrotation
     JOINT Neck
     {
      OFFSET 0.000000 14.453000 0.000000
      CHANNELS 3 Yrotation Xrotation Zrotation
      JOINT Head
      {
       OFFSET 0.000000 8.936500 -0.011300
       CHANNELS 3 Yrotation Xrotation Zrotation
       End Site
       {
        OFFSET 0.000000 17.073600 -0.006000
       }
      }
     }
     JOINT RightCollar
     {
      OFFSET -2.921100 9.558500 0.000000
      CHANNELS 3 Yrotation Xrotation Zrotation
      JOINT RightShoulder
      {
       OFFSET -13.519700 0.000000 0.000000
       CHANNELS 3 Yrotation Xrotation Zrotation
       JOINT RightElbow
       {
        OFFSET 0.000000 -29.696600 0.000000
        CHANNELS 3 Yrotation Xrotation Zrotation
        JOINT RightWrist
        {
         OFFSET 0.000000 -24.004700 0.000000
         CHANNELS 3 Yrotation Xrotation Zrotation
         End Site
         {
          OFFSET 0.000000 -17.728500 0.000000
         }
        }
       }
      }
     }
     JOINT LeftCollar
     {
      OFFSET 2.921100 9.558500 0.000000
      CHANNELS 3 Yrotation Xrotation Zrotation
      JOINT LeftShoulder
      {
       OFFSET 13.519700 0.000000 0.000000
       CHANNELS 3 Yrotation Xrotation Zrotation
       JOINT LeftElbow
       {
        OFFSET 0.000000 -29.696600 0.000000
        CHANNELS 3 Yrotation Xrotation Zrotation
        JOINT LeftWrist
        {
         OFFSET 0.000000 -24.004700 0.000000
         CHANNELS 3 Yrotation Xrotation Zrotation
         End Site
         {
          OFFSET 0.000000 -17.728500 0.000000
         }
        }
       }
      }
     }
    }
   }
  }
 }
 JOINT RightHip
 {
  OFFSET -7.771700 -0.012900 -0.001300
  CHANNELS 3 Yrotation Xrotation Zrotation
  JOINT RightKnee
  {
   OFFSET 0.000000 -40.869800 0.001200
   CHANNELS 3 Yrotation Xrotation Zrotation
   JOINT RightAnkle
   {
    OFFSET 0.000000 -39.717900 0.002100
    CHANNELS 3 Yrotation Xrotation Zrotation
    JOINT RightToe
    {
     OFFSET 0.000000 -4.965400 11.033500
     CHANNELS 3 Yrotation Xrotation Zrotation
     End Site
     {
      OFFSET 0.000000 -1.423100 5.872300
     }
    }
   }
  }
 }
 JOINT LeftHip
 {
  OFFSET 7.771700 -0.012900 -0.001300
  CHANNELS 3 Yrotation Xrotation Zrotation
  JOINT LeftKnee
  {
   OFFSET 0.000000 -40.869800 0.001200
   CHANNELS 3 Yrotation Xrotation Zrotation
   JOINT LeftAnkle
   {
    OFFSET 0.000000 -39.717900 0.002100
    CHANNELS 3 Yrotation Xrotation Zrotation
    JOINT LeftToe
    {
     OFFSET 0.000000 -4.965400 11.033500
     CHANNELS 3 Yrotation Xrotation Zrotation
     End Site
     {
      OFFSET 0.000000 -1.423100 5.872300
     }
    }
   }
  }
 }
}
MOTION
Frames: 9
Frame Time: 0.008333
-5.971528 55.905929 15.810241 -170.957501 -31.806390 -9.101734 -4.260547 13.249365 3.948265 -2.193841 7.719138 1.683338 -2.714105 9.657587 2.049876 -2.191974 7.716174 1.681183 1.625435 16.998391 -2.350613 2.249977 -7.803874 -2.840268 5.388663 -3.889873 -2.833890 2.668354 -22.658951 -0.116984 59.046034 -28.623528 -35.106980 8.727406 10.689131 -28.974874 -11.862973 -1.563686 -5.313963 -7.789080 -21.013240 2.599065 -65.305997 -22.534280 48.458461 1.945451 0.787697 17.378539 -23.461170 -28.583244 3.074728 -5.403646 89.353574 -5.160778 3.997520 -25.344634 -6.007742 -0.023174 0.755417 -0.011609 -10.651437 -43.531258 4.625733 175.583998 73.880619 173.500098 -2.220214 -25.300846 2.107032 -0.080679 -1.315476 -0.044341
-5.969402 55.904639 15.808292 -170.959126 -31.798732 -9.099362 -4.264555 13.248190 3.937885 -2.190548 7.720599 1.674906 -2.709146 9.650501 2.061546 -2.191223 7.714636 1.679898 1.625279 16.974776 -2.373732 2.251637 -7.798215 -2.821808 5.392618 -3.882329 -2.837470 2.656210 -22.650330 -0.117432 59.079233 -28.633771 -35.112331 8.728114 10.685702 -28.983636 -11.855507 -1.557491 -5.313419 -7.765169 -21.002588 2.587454 -65.359590 -22.568365 48.469213 1.923807 0.830650 17.411248 -23.464154 -28.590370 3.077085 -5.275484 89.356081 -5.030645 3.994907 -25.348296 -6.009591 -0.024512 0.756654 -0.012118 -10.653056 -43.540539 4.630495 175.593534 73.875755 173.508443 -2.218240 -25.301191 2.107663 -0.077411 -1.318210 -0.042326
-5.967433 55.902939 15.806969 -170.959575 -31.792110 -9.094946 -4.264490 13.248326 3.932121 -2.189784 7.718209 1.670637 -2.708906 9.645587 2.063664 -2.190920 7.712945 1.678253 1.624919 16.965004 -2.389068 2.257533 -7.835861 -2.846823 5.398641 -3.878171 -2.839228 2.643238 -22.641039 -0.117097 59.087275 -28.646383 -35.117208 8.722621 10.674905 -28.986731 -11.850073 -1.551904 -5.312623 -7.705596 -20.991464 2.558589 -65.442357 -22.596856 48.475191 1.903755 0.881080 17.423768 -23.469318 -28.598365 3.079051 -4.749667 89.365695 -4.507117 3.985959 -25.352417 -6.008922 -0.022868 0.758140 -0.013300 -10.651629 -43.549076 4.628822 175.599289 73.872106 173.514828 -2.213986 -25.304232 2.106184 -0.078897 -1.317513 -0.042324
-5.964413 55.900435 15.807240 -170.968279 -31.781134 -9.090198 -4.260394 13.244947 3.927522 -2.183803 7.713188 1.670102 -2.708779 9.644761 2.057784 -2.188053 7.710422 1.675149 1.626012 16.962482 -2.379433 2.258676 -7.853998 -2.882754 5.406346 -3.878304 -2.830942 2.636115 -22.631155 -0.115539 59.084537 -28.653213 -35.119350 8.716479 10.668104 -28.993942 -11.828573 -1.546746 -5.327892 -7.726348 -20.985401 2.582204 -65.464777 -22.607341 48.471839 1.894302 0.924340 17.404788 -23.469127 -28.612029 3.087482 -4.564281 89.371868 -4.321592 3.985764 -25.353814 -6.010397 -0.025243 0.760025 -0.014803 -10.656540 -43.563506 4.640548 175.597709 73.867579 173.510166 -2.216089 -25.306523 2.101500 -0.079122 -1.316877 -0.039898
-5.961386 55.897765 15.808145 -170.965087 -31.771066 -9.090859 -4.256779 13.240584 3.923501 -2.186290 7.708096 1.671018 -2.707446 9.645842 2.055047 -2.183428 7.706426 1.662038 1.622787 16.967008 -2.381749 2.258985 -7.850679 -2.897487 5.400617 -3.878201 -2.814049 2.633931 -22.617371 -0.132789 59.076217 -28.686444 -35.116804 8.718481 10.663408 -28.995407 -11.838971 -1.544112 -5.321396 -7.715115 -20.979621 2.588924 -65.455832 -22.652599 48.447035 1.855052 0.958271 17.395592 -23.476651 -28.623536 3.093305 -4.657784 89.373245 -4.412557 3.984168 -25.353252 -6.013746 -0.022363 0.759089 -0.013559 -10.678793 -43.578655 4.651687 175.603893 73.861776 173.511236 -2.211880 -25.302209 2.092049 -0.078588 -1.319677 -0.038388
-5.958541 55.895506 15.808915 -170.966258 -31.769907 -9.088536 -4.252201 13.237348 3.921168 -2.186233 7.707322 1.668728 -2.703505 9.644806 2.045125 -2.186023 7.707473 1.669177 1.621109 16.984606 -2.397290 2.259967 -7.832914 -2.910695 5.410757 -3.880007 -2.812878 2.618752 -22.611895 -0.132445 59.065872 -28.697531 -35.109761 8.700021 10.631072 -28.998529 -11.842329 -1.545012 -5.327020 -7.693069 -20.985976 2.585923 -65.440110 -22.775223 48.372111 1.732644 1.023733 17.465521 -23.471606 -28.627772 3.094579 -4.751140 89.375618 -4.502706 3.982651 -25.353985 -6.011097 -0.022955 0.760039 -0.015657 -10.681857 -43.584280 4.652829 175.617811 73.858075 173.526078 -2.204187 -25.300147 2.083799 -0.080773 -1.320667 -0.036289
-5.956128 55.893165 15.810317 -170.961233 -31.770712 -9.086995 -4.254533 13.235724 3.917011 -2.187196 7.708036 1.667520 -2.703974 9.645741 2.044854 -2.186058 7.707230 1.668544 1.616976 17.047127 -2.429616 2.261540 -7.754805 -2.930138 5.419453 -3.880618 -2.820657 2.606822 -22.609989 -0.128893 59.057627 -28.705293 -35.102934 8.699533 10.627094 -28.999767 -11.841045 -1.548290 -5.334899 -7.672252 -21.001310 2.578428 -65.446555 -22.815931 48.329047 1.600144 1.156510 17.516656 -23.468338 -28.630430 3.092309 -5.012061 89.383512 -4.759974 3.979818 -25.355968 -6.010031 -0.022201 0.761456 -0.014969 -10.686401 -43.588209 4.648967 175.627713 73.855824 173.537558 -2.199300 -25.299425 2.077960 -0.080989 -1.319021 -0.035900
-5.953431 55.890598 15.812835 -170.954002 -31.769681 -9.088547 -4.260647 13.234381 3.914862 -2.186937 7.706677 1.666549 -2.704238 9.642488 2.041220 -2.186940 7.706653 1.666559 1.616972 17.123803 -2.443257 2.261802 -7.667633 -2.943281 5.430557 -3.868105 -2.832074 2.583697 -22.615042 -0.120867 59.053805 -28.717499 -35.092846 8.683385 10.615121 -28.996915 -11.839974 -1.546079 -5.340049 -7.641161 -21.024038 2.568001 -65.460915 -22.839142 48.278267 1.487772 1.289209 17.547342 -23.469603 -28.634548 3.095270 -5.413330 89.380599 -5.160103 3.975338 -25.354432 -6.005821 -0.022045 0.759790 -0.016073 -10.704584 -43.597596 4.649413 175.623940 73.850203 173.532898 -2.188741 -25.286784 2.066300 -0.084380 -1.327029 -0.036650
-5.951021 55.888768 15.814919 -170.946901 -31.777859 -9.090405 -4.260846 13.234941 3.913365 -2.187951 7.706026 1.665159 -2.700691 9.636402 2.036070 -2.192402 7.711252 1.669166 1.618351 17.214678 -2.452005 2.263242 -7.571836 -2.950718 5.438116 -3.852558 -2.836017 2.567752 -22.619375 -0.123063 59.044165 -28.731052 -35.072633 8.670156 10.600477 -28.997593 -11.843598 -1.542396 -5.348363 -7.609128 -21.086546 2.555206 -65.462199 -22.834747 48.183041 1.409210 1.379301 17.564460 -23.469065 -28.627919 3.093928 -5.563545 89.389161 -5.310308 3.970946 -25.357427 -6.002640 -0.021128 0.763410 -0.015959 -10.709004 -43.593297 4.645730 175.635143 73.849026 173.546087 -2.181842 -25.286400 2.059702 -0.087818 -1.323410 -0.036616
